<svg width="28" height="32" viewBox="0 0 28 32" fill="none" xmlns="http://www.w3.org/2000/svg">
<g id="Logo">
<path id="Vector" d="M22.9031 30.688C21.1687 32.3711 19.2551 32.1089 17.4311 31.3151C15.4919 30.5056 13.7191 30.4544 11.6711 31.3151C9.12069 32.416 7.76709 32.096 6.23109 30.688C-2.44091 21.76 -1.16091 8.16 8.69509 7.648C11.0855 7.776 12.7591 8.9696 14.1671 9.0688C16.2599 8.6432 18.2631 7.424 20.5031 7.584C23.1942 7.8016 25.2071 8.864 26.5511 10.7744C21.0151 14.1024 22.3271 21.3984 27.412 23.4464C26.3942 26.1184 25.0886 28.7584 22.9 30.7104L22.9031 30.688ZM13.9751 7.552C13.7159 3.584 16.9319 0.32 20.6311 0C21.1399 4.576 16.4711 8 13.9751 7.552Z" fill="#181818"/>
</g>
</svg>
