<svg width="32" height="32" viewBox="0 0 32 32" fill="none" xmlns="http://www.w3.org/2000/svg">
<g id="Logo">
<path id="Vector" d="M31.5902 16.3676C31.5902 15.28 31.502 14.1865 31.3138 13.1165H16.2222V19.2778H24.8644C24.5058 21.2649 23.3535 23.0228 21.6662 24.1397V28.1375H26.8222C29.85 25.3508 31.5902 21.2355 31.5902 16.3676Z" fill="#4285F4"/>
<path id="Vector_2" d="M16.2222 32.0002C20.5375 32.0002 24.1767 30.5833 26.828 28.1375L21.6721 24.1398C20.2376 25.1158 18.3857 25.6684 16.2281 25.6684C12.0539 25.6684 8.51469 22.8522 7.2448 19.0662H1.92419V23.1873C4.64035 28.5904 10.1726 32.0002 16.2222 32.0002Z" fill="#34A853"/>
<path id="Vector_3" d="M7.23888 19.0661C6.56866 17.079 6.56866 14.9272 7.23888 12.9401V8.81885H1.92417C-0.345167 13.3399 -0.345167 18.6664 1.92417 23.1873L7.23888 19.0661Z" fill="#FBBC04"/>
<path id="Vector_4" d="M16.2222 6.3319C18.5033 6.29664 20.708 7.15497 22.36 8.73059L26.928 4.1625C24.0356 1.44636 20.1965 -0.0469312 16.2222 0.000101655C10.1726 0.000101655 4.64035 3.40999 1.92419 8.81877L7.23891 12.94C8.50291 9.14799 12.048 6.3319 16.2222 6.3319Z" fill="#EA4335"/>
</g>
</svg>
