<svg width="104" height="104" viewBox="0 0 104 104" fill="none" xmlns="http://www.w3.org/2000/svg">
<path id="BG" d="M60.0193 7.76231L60.7079 8.22235L61.5202 8.06086L70.9791 6.18039L76.3379 14.1985L76.798 14.8871L77.6103 15.0488L87.0688 16.9312L88.9512 26.3897L89.1129 27.202L89.8015 27.6621L97.8196 33.0209L95.9391 42.4798L95.7776 43.2921L96.2377 43.9807L101.595 52L96.2377 60.0193L95.7776 60.7079L95.9391 61.5202L97.8196 70.9791L89.8015 76.3379L89.1129 76.798L88.9512 77.6103L87.0688 87.0688L77.6103 88.9512L76.798 89.1129L76.3379 89.8015L70.9791 97.8196L61.5202 95.9391L60.7079 95.7776L60.0193 96.2377L52 101.595L43.9807 96.2377L43.2921 95.7776L42.4798 95.9391L33.0209 97.8196L27.6621 89.8015L27.202 89.1129L26.3897 88.9512L16.9312 87.0688L15.0488 77.6103L14.8871 76.798L14.1985 76.3379L6.18039 70.9791L8.06086 61.5202L8.22235 60.7079L7.76231 60.0193L2.40521 52L7.76231 43.9807L8.22235 43.2921L8.06086 42.4798L6.18039 33.0209L14.1985 27.6621L14.8871 27.202L15.0488 26.3897L16.9312 16.9312L26.3897 15.0488L27.202 14.8871L27.6621 14.1985L33.0209 6.18039L42.4798 8.06086L43.2921 8.22235L43.9807 7.76231L52 2.40521L60.0193 7.76231Z" stroke="#AAEDC3" stroke-width="4"/>
</svg>
