<svg width="16" height="16" viewBox="0 0 16 16" fill="none" xmlns="http://www.w3.org/2000/svg">
<g id="Icon/Warning">
<path id="Vector" d="M8.00004 9.33325C7.83523 9.33325 7.67411 9.38213 7.53707 9.47369C7.40003 9.56526 7.29322 9.69541 7.23014 9.84768C7.16707 9.99995 7.15057 10.1675 7.18272 10.3292C7.21488 10.4908 7.29424 10.6393 7.41079 10.7558C7.52733 10.8724 7.67582 10.9518 7.83747 10.9839C7.99912 11.0161 8.16668 10.9996 8.31895 10.9365C8.47122 10.8734 8.60137 10.7666 8.69294 10.6296C8.7845 10.4925 8.83338 10.3314 8.83338 10.1666C8.83338 9.94557 8.74558 9.73361 8.5893 9.57733C8.43302 9.42105 8.22106 9.33325 8.00004 9.33325ZM8.00004 8.33325C8.17686 8.33325 8.34642 8.26301 8.47145 8.13799C8.59647 8.01297 8.66671 7.8434 8.66671 7.66658V5.66658C8.66671 5.48977 8.59647 5.3202 8.47145 5.19518C8.34642 5.07016 8.17686 4.99992 8.00004 4.99992C7.82323 4.99992 7.65366 5.07016 7.52864 5.19518C7.40362 5.3202 7.33338 5.48977 7.33338 5.66658V7.66658C7.33338 7.8434 7.40362 8.01297 7.52864 8.13799C7.65366 8.26301 7.82323 8.33325 8.00004 8.33325ZM8.00004 1.33325C6.6815 1.33325 5.39257 1.72425 4.29624 2.45679C3.19991 3.18933 2.34543 4.23052 1.84085 5.4487C1.33626 6.66687 1.20424 8.00731 1.46148 9.30052C1.71871 10.5937 2.35365 11.7816 3.286 12.714C4.21835 13.6463 5.40624 14.2813 6.69944 14.5385C7.99265 14.7957 9.33309 14.6637 10.5513 14.1591C11.7694 13.6545 12.8106 12.8 13.5432 11.7037C14.2757 10.6074 14.6667 9.31846 14.6667 7.99992C14.6648 6.2324 13.9618 4.53784 12.7119 3.28802C11.4621 2.0382 9.76756 1.33519 8.00004 1.33325ZM8.00004 13.3333C6.94521 13.3333 5.91406 13.0205 5.037 12.4344C4.15994 11.8484 3.47635 11.0154 3.07269 10.0409C2.66902 9.06636 2.5634 7.994 2.76919 6.95944C2.97498 5.92487 3.48293 4.97456 4.22881 4.22868C4.97469 3.4828 5.925 2.97485 6.95956 2.76906C7.99413 2.56328 9.06648 2.66889 10.041 3.07256C11.0156 3.47623 11.8485 4.15982 12.4345 5.03688C13.0206 5.91394 13.3334 6.94508 13.3334 7.99992C13.3316 9.41386 12.7691 10.7694 11.7693 11.7692C10.7695 12.769 9.41399 13.3315 8.00004 13.3333Z" fill="#EA4A39"/>
</g>
</svg>
